<?xml version="1.0" encoding="utf-8"?>
<!-- Generator: Adobe Illustrator 27.5.0, SVG Export Plug-In . SVG Version: 6.00 Build 0)  -->
<svg version="1.1" xmlns="http://www.w3.org/2000/svg" xmlns:xlink="http://www.w3.org/1999/xlink" x="0px" y="0px"
	 viewBox="0 0 500 500" style="enable-background:new 0 0 500 500;" xml:space="preserve">
<g id="Background_Simple">
	<g>
		<path style="fill:#92E3A9;" d="M238.714,35.839C223.27,35.3,207.791,37.4,192.43,40.853
			c-37.648,8.464-74.477,22.502-103.351,46.283C55.891,114.471,37.787,153.973,28.207,194.7
			c-8.343,35.468-10.244,69.621,0.615,105.994c18.109,60.654,65.46,120.353,125.801,150.286
			c66.195,32.836,149.505,47.104,215.251,16.937c29.137-13.369,53.165-34.993,70.749-60.499
			c29.257-42.434,42.087-95.128,41.29-147.038c-0.428-27.893-1.824-61.679-21.519-85.507c-16.236-19.643-42.625-23.73-65.412-32.385
			c-34.238-13.005-45.414-42.755-69.092-66.402C302.811,53.036,271.641,36.989,238.714,35.839z"/>
		<path style="opacity:0.7;fill:#FFFFFF;" d="M238.714,35.839C223.27,35.3,207.791,37.4,192.43,40.853
			c-37.648,8.464-74.477,22.502-103.351,46.283C55.891,114.471,37.787,153.973,28.207,194.7
			c-8.343,35.468-10.244,69.621,0.615,105.994c18.109,60.654,65.46,120.353,125.801,150.286
			c66.195,32.836,149.505,47.104,215.251,16.937c29.137-13.369,53.165-34.993,70.749-60.499
			c29.257-42.434,42.087-95.128,41.29-147.038c-0.428-27.893-1.824-61.679-21.519-85.507c-16.236-19.643-42.625-23.73-65.412-32.385
			c-34.238-13.005-45.414-42.755-69.092-66.402C302.811,53.036,271.641,36.989,238.714,35.839z"/>
	</g>
</g>
<g id="Clock">
	<g>
		
			<circle style="fill:none;stroke:#263238;stroke-linecap:round;stroke-linejoin:round;stroke-miterlimit:10;" cx="131.06" cy="94.699" r="48.256"/>
		
			<circle style="fill:none;stroke:#263238;stroke-linecap:round;stroke-linejoin:round;stroke-miterlimit:10;" cx="131.06" cy="94.699" r="44.364"/>
		
			<line style="fill:none;stroke:#263238;stroke-linecap:round;stroke-linejoin:round;stroke-miterlimit:10;" x1="128.918" y1="96.199" x2="101.071" y2="115.706"/>
		
			<line style="fill:none;stroke:#263238;stroke-linecap:round;stroke-linejoin:round;stroke-miterlimit:10;" x1="120.855" y1="76.731" x2="129.993" y2="92.822"/>
		<path style="fill:none;stroke:#263238;stroke-linecap:round;stroke-linejoin:round;stroke-miterlimit:10;" d="M133.339,94.699
			c0,1.259-1.02,2.279-2.279,2.279c-1.259,0-2.279-1.02-2.279-2.279c0-1.259,1.02-2.279,2.279-2.279
			C132.318,92.42,133.339,93.44,133.339,94.699z"/>
	</g>
</g>
<g id="Folders">
	<g>
		
			<rect x="320.448" y="147.948" style="fill:#7A7A7A;stroke:#263238;stroke-linecap:round;stroke-linejoin:round;stroke-miterlimit:10;" width="27.186" height="103.824"/>
		<g>
			
				<rect x="293.701" y="147.948" style="fill:#C7C7C7;stroke:#263238;stroke-linecap:round;stroke-linejoin:round;stroke-miterlimit:10;" width="27.186" height="103.824"/>
			
				<rect x="298.741" y="155.77" style="fill:#FFFFFF;stroke:#263238;stroke-linecap:round;stroke-linejoin:round;stroke-miterlimit:10;" width="17.104" height="88.179"/>
		</g>
		<g>
			
				<rect x="266.515" y="147.948" style="fill:#C7C7C7;stroke:#263238;stroke-linecap:round;stroke-linejoin:round;stroke-miterlimit:10;" width="27.186" height="103.824"/>
			
				<rect x="271.556" y="155.77" style="fill:#FFFFFF;stroke:#263238;stroke-linecap:round;stroke-linejoin:round;stroke-miterlimit:10;" width="17.104" height="88.179"/>
		</g>
		<g>
			
				<rect x="239.329" y="147.948" style="fill:#C7C7C7;stroke:#263238;stroke-linecap:round;stroke-linejoin:round;stroke-miterlimit:10;" width="27.186" height="103.824"/>
			
				<rect x="244.37" y="155.77" style="fill:#FFFFFF;stroke:#263238;stroke-linecap:round;stroke-linejoin:round;stroke-miterlimit:10;" width="17.104" height="88.179"/>
		</g>
	</g>
</g>
<g id="Plant">
	<g>
		<polygon style="fill:#92E3A9;" points="375.273,224.481 361.574,162.065 374.806,198.016 374.307,166.059 380.548,191.775 
			386.291,134.851 396.527,201.512 404.766,184.784 405.016,196.768 408.511,190.776 411.507,203.259 418.747,155.324 
			423.74,203.01 435.724,177.045 430.731,193.772 440.718,176.296 424.913,224.481 		"/>
		
			<rect x="362.81" y="215.257" style="fill:#FFFFFF;stroke:#263238;stroke-linecap:round;stroke-linejoin:round;stroke-miterlimit:10;" width="71.79" height="36.951"/>
		
			<rect x="419.784" y="215.257" style="fill:#D4D4D4;stroke:#263238;stroke-linecap:round;stroke-linejoin:round;stroke-miterlimit:10;" width="14.816" height="36.951"/>
		
			<line style="fill:none;stroke:#263238;stroke-linecap:round;stroke-linejoin:round;stroke-miterlimit:10;" x1="417.128" y1="228.517" x2="431.402" y2="228.517"/>
		
			<line style="fill:none;stroke:#263238;stroke-linecap:round;stroke-linejoin:round;stroke-miterlimit:10;" x1="373.533" y1="228.517" x2="410.696" y2="228.517"/>
		
			<line style="fill:none;stroke:#263238;stroke-linecap:round;stroke-linejoin:round;stroke-miterlimit:10;" x1="364.762" y1="228.517" x2="371.151" y2="228.517"/>
		
			<line style="fill:none;stroke:#263238;stroke-linecap:round;stroke-linejoin:round;stroke-miterlimit:10;" x1="410.22" y1="240.778" x2="427.137" y2="240.778"/>
		
			<line style="fill:none;stroke:#263238;stroke-linecap:round;stroke-linejoin:round;stroke-miterlimit:10;" x1="386.619" y1="240.778" x2="404.026" y2="240.778"/>
	</g>
</g>
<g id="Furniture">
	<g>
		
			<rect x="434.922" y="251.974" transform="matrix(-1 -1.224647e-16 1.224647e-16 -1 895.886 616.4419)" style="fill:#D4D4D4;stroke:#263238;stroke-linecap:round;stroke-linejoin:round;stroke-miterlimit:10;" width="26.042" height="112.494"/>
		
			<rect x="226.895" y="251.974" style="fill:#FFFFFF;stroke:#263238;stroke-linecap:round;stroke-linejoin:round;stroke-miterlimit:10;" width="208.027" height="112.494"/>
		
			<rect x="434.922" y="251.974" transform="matrix(-1 -1.224647e-16 1.224647e-16 -1 895.886 520.9753)" style="fill:#263238;stroke:#263238;stroke-linecap:round;stroke-linejoin:round;stroke-miterlimit:10;" width="26.042" height="17.027"/>
		
			<rect x="226.895" y="251.974" style="fill:#263238;stroke:#263238;stroke-linecap:round;stroke-linejoin:round;stroke-miterlimit:10;" width="208.027" height="17.027"/>
		
			<rect x="232.017" y="271.69" style="fill:#FFFFFF;stroke:#263238;stroke-linecap:round;stroke-linejoin:round;stroke-miterlimit:10;" width="197.782" height="35.813"/>
		
			<rect x="306.968" y="286.625" style="fill:#D4D4D4;stroke:#263238;stroke-linecap:round;stroke-linejoin:round;stroke-miterlimit:10;" width="47.881" height="5.944"/>
		
			<rect x="232.017" y="316.472" style="fill:#FFFFFF;stroke:#263238;stroke-linecap:round;stroke-linejoin:round;stroke-miterlimit:10;" width="197.782" height="35.813"/>
		
			<rect x="306.968" y="331.187" style="fill:#D4D4D4;stroke:#263238;stroke-linecap:round;stroke-linejoin:round;stroke-miterlimit:10;" width="47.881" height="5.944"/>
		
			<rect x="222.951" y="251.974" style="fill:#878787;stroke:#263238;stroke-linecap:round;stroke-linejoin:round;stroke-miterlimit:10;" width="215.914" height="11.196"/>
		
			<rect x="438.865" y="251.974" transform="matrix(-1 -1.224647e-16 1.224647e-16 -1 905.52 515.1435)" style="fill:#404040;stroke:#263238;stroke-linecap:round;stroke-linejoin:round;stroke-miterlimit:10;" width="27.789" height="11.196"/>
	</g>
</g>
<g id="Table">
	<polyline style="fill:none;stroke:#263238;stroke-linecap:round;stroke-linejoin:round;stroke-miterlimit:10;" points="
		480.757,364.679 227.383,364.679 20.317,455.556 	"/>
</g>
<g id="Device">
	<g>
		<polygon style="fill:#C7C7C7;stroke:#263238;stroke-linecap:round;stroke-linejoin:round;stroke-miterlimit:10;" points="
			379.143,378.588 379.143,376.698 253.813,403.963 253.813,405.853 350.998,405.853 		"/>
		<polygon style="fill:#C7C7C7;stroke:#263238;stroke-linecap:round;stroke-linejoin:round;stroke-miterlimit:10;" points="
			379.143,376.698 297.788,376.698 253.813,403.963 350.998,403.963 		"/>
		<g>
			<polygon style="fill:#263238;" points="306.904,389.42 313.756,389.42 317.257,386.745 310.57,386.745 			"/>
			<polygon style="fill:#263238;" points="306.746,394.777 312.135,390.659 305.207,390.659 299.565,394.777 			"/>
			<polygon style="fill:#263238;" points="339.995,386.745 334.091,386.745 331.038,389.42 337.15,389.42 			"/>
			<polygon style="fill:#263238;" points="315.797,389.42 321.599,389.42 324.75,386.745 319.298,386.745 			"/>
			<polygon style="fill:#263238;" points="320.919,385.506 326.21,385.506 329.848,382.418 324.96,382.418 			"/>
			<polygon style="fill:#263238;" points="335.833,390.659 329.623,390.659 324.923,394.777 331.454,394.777 			"/>
			<polygon style="fill:#263238;" points="320.139,390.659 314.176,390.659 308.787,394.777 315.289,394.777 			"/>
			<polygon style="fill:#263238;" points="327.742,390.659 322.054,390.659 317.203,394.777 323.042,394.777 			"/>
			<polygon style="fill:#263238;" points="323.513,389.42 329.156,389.42 332.21,386.745 326.665,386.745 			"/>
			<polygon style="fill:#263238;" points="325.828,380.195 319.542,380.195 318.195,381.178 324.541,381.178 			"/>
			<polygon style="fill:#263238;" points="362.08,381.178 363.069,380.195 356.722,380.195 355.743,381.178 			"/>
			<polygon style="fill:#263238;" points="351.435,385.506 357.73,385.506 360.835,382.418 354.509,382.418 			"/>
			<polygon style="fill:#263238;" points="291.775,396.017 286.923,399.268 291.31,399.268 295.764,396.017 			"/>
			<polygon style="fill:#263238;" points="348.453,386.745 341.802,386.745 338.958,389.42 345.79,389.42 			"/>
			<polygon style="fill:#263238;" points="328.124,385.506 333.624,385.506 337.149,382.418 331.762,382.418 			"/>
			<polygon style="fill:#263238;" points="343.12,385.506 349.687,385.506 352.761,382.418 346.403,382.418 			"/>
			<polygon style="fill:#263238;" points="335.506,385.506 341.312,385.506 344.596,382.418 339.03,382.418 			"/>
			<polygon style="fill:#263238;" points="301.616,389.42 304.801,389.42 308.466,386.745 305.608,386.745 			"/>
			<polygon style="fill:#263238;" points="344.556,390.659 337.64,390.659 333.262,394.777 340.457,394.777 			"/>
			<polygon style="fill:#263238;" points="331.945,396.017 328.487,399.268 335.986,399.268 339.223,396.017 			"/>
			<polygon style="fill:#263238;" points="330.137,396.017 323.509,396.017 319.798,399.268 326.68,399.268 			"/>
			<polygon style="fill:#263238;" points="315.744,396.017 311.913,399.268 317.917,399.268 321.628,396.017 			"/>
			<polygon style="fill:#263238;" points="340.971,396.017 337.734,399.268 343.892,399.268 347.162,396.017 			"/>
			<polygon style="fill:#263238;" points="313.829,396.017 307.166,396.017 302.911,399.268 309.999,399.268 			"/>
			<polygon style="fill:#263238;" points="352.548,390.659 346.304,390.659 342.205,394.777 348.408,394.777 			"/>
			<polygon style="fill:#263238;" points="316.092,381.178 317.439,380.195 315.38,380.195 313.913,381.178 			"/>
			<polygon style="fill:#263238;" points="297.462,394.777 303.103,390.659 299.767,390.659 293.623,394.777 			"/>
			<polygon style="fill:#263238;" points="345.913,381.178 346.959,380.195 341.567,380.195 340.444,381.178 			"/>
			<polygon style="fill:#263238;" points="331.307,381.178 332.465,380.195 327.868,380.195 326.582,381.178 			"/>
			<polygon style="fill:#263238;" points="297.868,396.017 293.413,399.268 300.87,399.268 305.125,396.017 			"/>
			<polygon style="fill:#263238;" points="347.721,381.178 353.995,381.178 354.974,380.195 348.766,380.195 			"/>
			<polygon style="fill:#263238;" points="333.222,381.178 338.563,381.178 339.686,380.195 334.38,380.195 			"/>
			<polygon style="fill:#263238;" points="356.484,386.745 350.201,386.745 347.538,389.42 353.794,389.42 			"/>
			<polygon style="fill:#263238;" points="312.267,385.506 318.879,385.506 322.92,382.418 316.498,382.418 			"/>
			<polygon style="fill:#263238;" points="307.457,385.506 310.164,385.506 314.394,382.418 312.064,382.418 			"/>
		</g>
		<polygon style="fill:#A3A3A3;stroke:#263238;stroke-linecap:round;stroke-linejoin:round;stroke-miterlimit:10;" points="
			350.998,403.963 375.625,297.103 399.371,284.35 379.143,376.698 		"/>
	</g>
</g>
<g id="Mug">
	<g>
		<g>
			<g>
				<path style="fill:#92E3A9;stroke:#263238;stroke-linecap:round;stroke-linejoin:round;stroke-miterlimit:10;" d="
					M251.201,427.787h-0.174c-2.642,0-16.06-0.192-20.756-3.98c-4.665-3.763-11.536-17.791-8.19-24.542
					c3.174-6.399,17.177-4.07,23.047-2.776l-1.312,5.944c-7.188-1.583-15.115-1.785-16.312-0.413
					c-1.336,2.708,2.483,13.737,6.589,17.049c1.991,1.606,10.209,2.609,16.761,2.63l2.693-0.311l0.695,6.048L251.201,427.787z"/>
			</g>
			<path style="fill:#92E3A9;stroke:#263238;stroke-linecap:round;stroke-linejoin:round;stroke-miterlimit:10;" d="
				M237.272,395.836l8.536,54.773c0,2.652,7.166,4.801,16.005,4.801c8.839,0,16.005-2.15,16.005-4.801l8.536-54.773H237.272z"/>
			<path style="fill:#92E3A9;stroke:#263238;stroke-linecap:round;stroke-linejoin:round;stroke-miterlimit:10;" d="
				M286.354,395.837c0,2.652-10.987,4.801-24.541,4.801c-13.554,0-24.541-2.15-24.541-4.801s10.988-4.802,24.541-4.802
				C275.367,391.035,286.354,393.185,286.354,395.837z"/>
		</g>
		<g>
			<path style="fill:none;stroke:#263238;stroke-miterlimit:10;" d="M251.62,385.296c0,0-5.067-10.767,0.633-18.368
				c5.7-7.601,12.18-19.143,10.913-28.011"/>
			<path style="fill:none;stroke:#263238;stroke-miterlimit:10;" d="M276.955,364.395c0,0-10.134,8.234-6.334,19.001"/>
			<path style="fill:none;stroke:#263238;stroke-miterlimit:10;" d="M279.101,362.073c0,0,3.237-3.237,4.233-6.474"/>
		</g>
	</g>
</g>
<g id="Character">
	<path style="fill:#263238;stroke:#263238;stroke-linecap:round;stroke-linejoin:round;stroke-miterlimit:10;" d="M36.818,448.046
		L14.458,331.58c-0.9-4.69,2.184-9.217,6.878-10.096l59.522-11.143c3.958-0.741,7.802,1.753,8.738,5.669l23.603,98.774
		L36.818,448.046z"/>
	<g>
		<path style="fill:#263238;stroke:#263238;stroke-linecap:round;stroke-linejoin:round;stroke-miterlimit:10;" d="M203.573,146.87
			c0,0,17.885,7.531,20.71,12.473c2.824,4.942-4.942,15.532-8.707,17.415c-3.765,1.883-6.119,2.589-6.119,2.589
			s5.413-2.824,7.295-6.119c1.883-3.295,2.118-4.942,2.118-4.942s-5.883,4.942-9.649,4.942c-3.765,0-10.355-8.472-9.884-15.768
			C199.808,150.164,203.573,146.87,203.573,146.87z"/>
		<g>
			<path style="fill:#92E3A9;stroke:#263238;stroke-linecap:round;stroke-linejoin:round;stroke-miterlimit:10;" d="M91.044,253.955
				c0,0-13.841,15.97-17.389,53.233c-3.549,37.263,0,84.108,2.839,95.819c2.839,11.711,1.419,27.326,1.419,27.326l88.202-38.856
				l-0.191-5.15c0,0,8.517-16.325,9.937-23.422c1.419-7.098,6.743-13.131,3.904-36.553c-2.839-23.423-5.323-37.973-14.195-55.007
				c-8.872-17.035-20.229-26.971-32.65-31.585C120.499,235.146,91.044,253.955,91.044,253.955z"/>
			<path style="fill:#92E3A9;stroke:#263238;stroke-linecap:round;stroke-linejoin:round;stroke-miterlimit:10;" d="
				M211.708,180.769c0,0,5.452,7.043,8.633,10.905c3.181,3.862,3.862,13.631,4.998,18.174c1.136,4.544-4.771,14.313-5.679,17.493
				c-0.909,3.18-4.317,21.355-4.317,21.355s18.629,42.483,20.674,58.159c2.045,15.676-2.953,40.893-4.316,44.982
				c-1.363,4.089-3.635,7.043-8.633,8.406s-11.586,7.724-19.765-2.726c-8.178-10.45-23.4-36.122-35.44-57.931
				s-22.491-37.258-30.215-43.619s-15.676-11.813-15.676-11.813s28.171,0,37.485-0.454c9.314-0.454,11.586,0.227,14.994,5.225
				s12.949,27.943,19.765,39.984c6.815,12.041,9.314,17.266,9.314,17.266s0-37.258-0.682-45.436
				c-0.682-8.179-2.272-11.359-3.408-15.676c-1.136-4.316-2.045-11.813-1.817-12.722c0.227-0.909,3.408-18.402,3.408-18.402
				l1.59-21.355C202.621,192.583,198.077,171.228,211.708,180.769z"/>
			<g>
				<path style="fill:none;stroke:#263238;stroke-linecap:round;stroke-linejoin:round;stroke-miterlimit:10;" d="M203.529,306.174
					c0,0-7.951,21.128-5.225,28.171"/>
				<path style="fill:none;stroke:#263238;stroke-linecap:round;stroke-linejoin:round;stroke-miterlimit:10;" d="M201.939,310.036
					c0,0-8.178,7.043-9.542,11.814"/>
				<path style="fill:none;stroke:#263238;stroke-linecap:round;stroke-linejoin:round;stroke-miterlimit:10;" d="M190.126,315.943
					c0,0,5.225-5.452,9.542-6.815"/>
				
					<line style="fill:none;stroke:#263238;stroke-linecap:round;stroke-linejoin:round;stroke-miterlimit:10;" x1="179.675" y1="285.955" x2="183.31" y2="315.943"/>
			</g>
		</g>
		<path style="fill:#FFFFFF;stroke:#263238;stroke-linecap:round;stroke-linejoin:round;stroke-miterlimit:10;" d="M215.343,248.697
			c0,0,3.408-18.175,4.317-21.355c0.909-3.181,6.815-12.949,5.679-17.493c-1.136-4.544-1.817-14.313-4.998-18.174
			c-3.18-3.862-8.633-10.905-8.633-10.905c-13.631-9.542-9.087,11.814-9.087,11.814l-1.59,21.355c0,0-3.18,17.493-3.408,18.402
			c-0.227,0.909,0.682,8.406,1.817,12.722c1.136,4.316,2.726,7.497,3.408,15.676c0.682,8.178,0.682,45.436,0.682,45.436
			s-0.909,8.86,1.59,13.177c2.499,4.316,10.223,12.495,18.175,11.359c6.386-0.912,10.477-3.319,13.051-9.776
			c0.259-4.984,0.22-9.875-0.329-14.079C233.972,291.18,215.343,248.697,215.343,248.697z"/>
		<path style="fill:#FFFFFF;stroke:#263238;stroke-linecap:round;stroke-linejoin:round;stroke-miterlimit:10;" d="M211.591,185.564
			c0,0,7.815,9.971,8.893,12.936c1.078,2.964,2.695,13.744,2.156,16.17"/>
		<g>
			<path style="fill:#FFFFFF;stroke:#263238;stroke-linecap:round;stroke-linejoin:round;stroke-miterlimit:10;" d="
				M205.456,154.871c0,0,7.766,19.768,7.766,25.181s-0.235,9.178-2.353,13.885c-2.118,4.707-0.941,11.061,1.647,13.649
				c2.589,2.589,3.059,3.53,2.118,8.001c-0.941,4.471-3.53,12.002-9.413,20.474c-5.883,8.472-8.237,9.884-12.473,9.178
				c-4.236-0.706-11.531-4.001-11.531-4.001s-8.472,6.825-10.119,16.944c-1.647,10.119-0.706,18.591-0.471,22.357
				c0.235,3.765-7.531,2.353-13.885-5.883c-6.354-8.237-10.119-15.767-10.59-16.473c-0.471-0.706,14.826-4.471,11.296-18.827
				c-3.53-14.355-13.179-12.237-17.65-25.416c-4.471-13.179-5.883-19.298,5.648-32.476c11.531-13.179,31.77-18.592,39.772-24.946
				C193.219,150.164,205.456,154.871,205.456,154.871z"/>
			<path style="fill:#263238;" d="M193.313,184.335c0,0,3.67-3.863,8.498-4.829c4.829-0.966,6.374,4.635,6.374,4.635
				S202.391,178.54,193.313,184.335z"/>
			<polygon style="fill:#263238;stroke:#263238;stroke-linecap:round;stroke-linejoin:round;stroke-miterlimit:10;" points="
				181.217,241.239 171.667,236.813 172.662,251.419 			"/>
			<path style="fill:none;stroke:#263238;stroke-linecap:round;stroke-linejoin:round;stroke-miterlimit:10;" d="M200.199,225.076
				c0,0,4.188-1.675,8.375,0.558"/>
			<g>
				<path style="fill:none;stroke:#263238;stroke-linecap:round;stroke-linejoin:round;stroke-miterlimit:10;" d="M201.143,189.927
					c0,0-0.857,5.713,0.286,7.998"/>
				<path style="fill:#263238;" d="M189.718,196.211c0,0,10.854,1.143,13.996,0l-0.286,1.999l1.999,0.286
					C205.427,198.496,197.144,204.78,189.718,196.211z"/>
			</g>
			<path style="fill:none;stroke:#263238;stroke-linecap:round;stroke-linejoin:round;stroke-miterlimit:10;" d="M203.103,212.057
				c0,0,0,3.765,1.412,4.236c1.412,0.471,3.059,0.471,5.648-0.471"/>
		</g>
		<path style="fill:#263238;stroke:#263238;stroke-linecap:round;stroke-linejoin:round;stroke-miterlimit:10;" d="M208.751,150.164
			c0,0-5.177,16.003-15.297,25.887c-10.119,9.884-28.24,7.295-28.24,7.295s-1.177,8.237-4.471,9.884
			c-3.295,1.647-4.707-0.941-8.001-2.118c-3.295-1.177-14.591,6.825-5.648,18.356c8.943,11.532,14.12,3.295,20.003,18.356
			c5.883,15.061,4.942,24.475-4.001,33.888s-18.591,4.942-32.005-3.53c-13.414-8.472-25.652-10.355-33.888-3.295
			c-8.237,7.06-16.473,20.474-18.356,24.475s-2.589,5.883-2.589,5.883s-14.12-5.648-18.356-17.415
			c-4.236-11.767-4.236-24.24,8.707-24.71c12.943-0.471,14.826,0.471,11.767-13.414c-3.059-13.885,5.648-29.652,19.768-26.122
			c14.12,3.53,14.826-2.589,15.061-22.827c0.235-20.239,9.178-41.89,33.653-48.714C171.332,125.219,207.103,138.868,208.751,150.164
			z"/>
		<path style="fill:none;stroke:#263238;stroke-linecap:round;stroke-linejoin:round;stroke-miterlimit:10;" d="M164.227,332.981"/>
		<g>
			<g>
				<path style="fill:none;stroke:#263238;stroke-linecap:round;stroke-linejoin:round;stroke-miterlimit:10;" d="M86.48,329.937
					c0,0,26.718-4.333,42.243-13.72"/>
				<path style="fill:none;stroke:#263238;stroke-linecap:round;stroke-linejoin:round;stroke-miterlimit:10;" d="M130.889,322.716
					c0,0-12.276,12.276-19.136,16.969"/>
				<path style="fill:none;stroke:#263238;stroke-linecap:round;stroke-linejoin:round;stroke-miterlimit:10;" d="M90.452,403.23
					c0,0,24.551-18.414,41.16-38.271"/>
			</g>
		</g>
		<g>
			<path style="fill:#FFFFFF;stroke:#263238;stroke-linecap:round;stroke-linejoin:round;stroke-miterlimit:10;" d="
				M218.296,355.245l12.041-0.682c0,0,2.045-4.316,2.726-8.406c0.682-4.089,1.974-11.833,1.974-11.833s3.479,5.699,7.795,7.743
				c4.316,2.045,6.361,6.588,6.815,10.223c0.454,3.635,0.454,12.268-1.363,16.13c-1.817,3.862-12.949,13.631-19.311,17.266
				c-6.361,3.635-7.951,4.316-7.951,4.316s3.635-19.538,2.272-24.99C221.931,359.562,218.296,355.245,218.296,355.245z"/>
			
				<line style="fill:none;stroke:#263238;stroke-linecap:round;stroke-linejoin:round;stroke-miterlimit:10;" x1="230.337" y1="354.564" x2="244.876" y2="350.474"/>
		</g>
		<g>
			<path style="fill:#92E3A9;stroke:#263238;stroke-linecap:round;stroke-linejoin:round;stroke-miterlimit:10;" d="M98.344,292.997
				c0,0,9.542,8.406,17.72,17.72c8.179,9.315,42.674,61.084,42.674,61.084s2.272,2.272,4.544,4.316
				c2.272,2.045,4.316,2.953,6.816,5.452c2.499,2.499,0.454,4.998,3.862,8.633c3.408,3.635,13.5,4.914,21.224,6.504
				c7.724,1.59,23.568-4.431,27.43-7.385c3.862-2.953,7.724-12.268,4.771-23.627c-2.953-11.359-8.406-10.905-11.132-11.132
				s-4.771,0.227-4.771,0.227s-2.272-2.726-3.635-4.544c-1.363-1.817-3.408-0.909-3.408-0.909s-1.818-3.181-3.408-5.225
				c-1.59-2.045-2.953-1.363-2.953-1.363s-20.673-34.532-33.169-54.524c-8.031-12.85-15.781-23.635-20.293-29.701
				c-4.1-5.512-9.343-10.11-15.464-13.23c-3.647-1.859-7.814-3.331-11.951-3.414c-22.718-0.454-35.895,21.355-38.621,40.438"/>
			<path style="fill:none;stroke:#263238;stroke-linecap:round;stroke-linejoin:round;stroke-miterlimit:10;" d="M197.395,345.476
				c0,0-4.771,2.045-12.495-0.227c-0.446-0.131-0.91-0.288-1.387-0.467"/>
			<path style="fill:none;stroke:#263238;stroke-linecap:round;stroke-linejoin:round;stroke-miterlimit:10;" d="M171.217,349.431
				c-2.932-1.676-4.718-3.046-4.718-3.046"/>
			<path style="fill:none;stroke:#263238;stroke-linecap:round;stroke-linejoin:round;stroke-miterlimit:10;" d="M204.665,352.292
				c0,0-5.679,4.316-17.039,2.953c-5.031-0.604-9.75-2.411-13.446-4.236"/>
			<path style="fill:none;stroke:#263238;stroke-linecap:round;stroke-linejoin:round;stroke-miterlimit:10;" d="M211.026,356.381
				c0,0,0.227,14.994-6.815,20.446"/>
		</g>
		<path style="fill:#FFFFFF;stroke:#263238;stroke-linecap:round;stroke-linejoin:round;stroke-miterlimit:10;" d="M217.787,223.959
			c0,0,1.675-6.979,1.675-11.446c0-4.467-4.188-10.329-5.863-14.517c-2.264-5.661-5.025-4.746-4.187-0.837
			c0.837,3.908,3.104,10.427,3.104,10.427s1.641,10.79-0.871,15.536c-2.513,4.746-9.213,14.796-10.05,19.821
			c-0.837,5.025,0.676,4.987,0.676,4.987"/>
	</g>
</g>
</svg>
