<svg width="262" height="61" viewBox="0 0 262 61" fill="none" xmlns="http://www.w3.org/2000/svg">
<rect width="262" height="61" rx="8" fill="#8A20F4"/>
<path d="M37.9393 45.5607C38.5251 46.1464 39.4749 46.1464 40.0607 45.5607L49.6066 36.0147C50.1924 35.4289 50.1924 34.4792 49.6066 33.8934C49.0208 33.3076 48.0711 33.3076 47.4853 33.8934L39 42.3787L30.5147 33.8934C29.9289 33.3076 28.9792 33.3076 28.3934 33.8934C27.8076 34.4792 27.8076 35.4289 28.3934 36.0147L37.9393 45.5607ZM37.5 17.5V44.5H40.5V17.5H37.5Z" fill="black"/>
<path d="M70.056 22.272C71.88 22.272 73.456 22.616 74.784 23.304C76.128 23.976 77.152 24.944 77.856 26.208C78.576 27.472 78.936 28.96 78.936 30.672C78.936 32.384 78.576 33.872 77.856 35.136C77.152 36.384 76.128 37.344 74.784 38.016C73.456 38.672 71.88 39 70.056 39H64.848V22.272H70.056ZM70.056 37.2C72.216 37.2 73.864 36.632 75 35.496C76.136 34.344 76.704 32.736 76.704 30.672C76.704 28.592 76.128 26.968 74.976 25.8C73.84 24.632 72.2 24.048 70.056 24.048H67.032V37.2H70.056ZM82.9448 23.712C82.5288 23.712 82.1768 23.568 81.8888 23.28C81.6008 22.992 81.4568 22.64 81.4568 22.224C81.4568 21.808 81.6008 21.456 81.8888 21.168C82.1768 20.88 82.5288 20.736 82.9448 20.736C83.3448 20.736 83.6808 20.88 83.9528 21.168C84.2408 21.456 84.3848 21.808 84.3848 22.224C84.3848 22.64 84.2408 22.992 83.9528 23.28C83.6808 23.568 83.3448 23.712 82.9448 23.712ZM84.0008 25.848V39H81.8168V25.848H84.0008ZM92.379 39.216C91.371 39.216 90.467 39.048 89.667 38.712C88.867 38.36 88.235 37.88 87.771 37.272C87.307 36.648 87.051 35.936 87.003 35.136H89.259C89.323 35.792 89.627 36.328 90.171 36.744C90.731 37.16 91.459 37.368 92.355 37.368C93.187 37.368 93.843 37.184 94.323 36.816C94.803 36.448 95.043 35.984 95.043 35.424C95.043 34.848 94.787 34.424 94.275 34.152C93.763 33.864 92.971 33.584 91.899 33.312C90.923 33.056 90.123 32.8 89.499 32.544C88.891 32.272 88.363 31.88 87.915 31.368C87.483 30.84 87.267 30.152 87.267 29.304C87.267 28.632 87.467 28.016 87.867 27.456C88.267 26.896 88.835 26.456 89.571 26.136C90.307 25.8 91.147 25.632 92.091 25.632C93.547 25.632 94.723 26 95.619 26.736C96.515 27.472 96.995 28.48 97.059 29.76H94.875C94.827 29.072 94.547 28.52 94.035 28.104C93.539 27.688 92.867 27.48 92.019 27.48C91.235 27.48 90.611 27.648 90.147 27.984C89.683 28.32 89.451 28.76 89.451 29.304C89.451 29.736 89.587 30.096 89.859 30.384C90.147 30.656 90.499 30.88 90.915 31.056C91.347 31.216 91.939 31.4 92.691 31.608C93.635 31.864 94.403 32.12 94.995 32.376C95.587 32.616 96.091 32.984 96.507 33.48C96.939 33.976 97.163 34.624 97.179 35.424C97.179 36.144 96.979 36.792 96.579 37.368C96.179 37.944 95.611 38.4 94.875 38.736C94.155 39.056 93.323 39.216 92.379 39.216ZM99.4461 32.4C99.4461 31.04 99.7181 29.856 100.262 28.848C100.806 27.824 101.558 27.032 102.518 26.472C103.494 25.912 104.606 25.632 105.854 25.632C107.47 25.632 108.798 26.024 109.838 26.808C110.894 27.592 111.59 28.68 111.926 30.072H109.574C109.35 29.272 108.91 28.64 108.254 28.176C107.614 27.712 106.814 27.48 105.854 27.48C104.606 27.48 103.598 27.912 102.83 28.776C102.062 29.624 101.678 30.832 101.678 32.4C101.678 33.984 102.062 35.208 102.83 36.072C103.598 36.936 104.606 37.368 105.854 37.368C106.814 37.368 107.614 37.144 108.254 36.696C108.894 36.248 109.334 35.608 109.574 34.776H111.926C111.574 36.12 110.87 37.2 109.814 38.016C108.758 38.816 107.438 39.216 105.854 39.216C104.606 39.216 103.494 38.936 102.518 38.376C101.558 37.816 100.806 37.024 100.262 36C99.7181 34.976 99.4461 33.776 99.4461 32.4ZM120.576 39.216C119.344 39.216 118.224 38.936 117.216 38.376C116.224 37.816 115.44 37.024 114.864 36C114.304 34.96 114.024 33.76 114.024 32.4C114.024 31.056 114.312 29.872 114.888 28.848C115.48 27.808 116.28 27.016 117.288 26.472C118.296 25.912 119.424 25.632 120.672 25.632C121.92 25.632 123.048 25.912 124.056 26.472C125.064 27.016 125.856 27.8 126.432 28.824C127.024 29.848 127.32 31.04 127.32 32.4C127.32 33.76 127.016 34.96 126.408 36C125.816 37.024 125.008 37.816 123.984 38.376C122.96 38.936 121.824 39.216 120.576 39.216ZM120.576 37.296C121.36 37.296 122.096 37.112 122.784 36.744C123.472 36.376 124.024 35.824 124.44 35.088C124.872 34.352 125.088 33.456 125.088 32.4C125.088 31.344 124.88 30.448 124.464 29.712C124.048 28.976 123.504 28.432 122.832 28.08C122.16 27.712 121.432 27.528 120.648 27.528C119.848 27.528 119.112 27.712 118.44 28.08C117.784 28.432 117.256 28.976 116.856 29.712C116.456 30.448 116.256 31.344 116.256 32.4C116.256 33.472 116.448 34.376 116.832 35.112C117.232 35.848 117.76 36.4 118.416 36.768C119.072 37.12 119.792 37.296 120.576 37.296ZM135.088 36.984L139.168 25.848H141.496L136.336 39H133.792L128.632 25.848H130.984L135.088 36.984ZM155.645 31.92C155.645 32.336 155.621 32.776 155.573 33.24H145.061C145.141 34.536 145.581 35.552 146.381 36.288C147.197 37.008 148.181 37.368 149.333 37.368C150.277 37.368 151.061 37.152 151.685 36.72C152.325 36.272 152.773 35.68 153.029 34.944H155.381C155.029 36.208 154.325 37.24 153.269 38.04C152.213 38.824 150.901 39.216 149.333 39.216C148.085 39.216 146.965 38.936 145.973 38.376C144.997 37.816 144.229 37.024 143.669 36C143.109 34.96 142.829 33.76 142.829 32.4C142.829 31.04 143.101 29.848 143.645 28.824C144.189 27.8 144.949 27.016 145.925 26.472C146.917 25.912 148.053 25.632 149.333 25.632C150.581 25.632 151.685 25.904 152.645 26.448C153.605 26.992 154.341 27.744 154.853 28.704C155.381 29.648 155.645 30.72 155.645 31.92ZM153.389 31.464C153.389 30.632 153.205 29.92 152.837 29.328C152.469 28.72 151.965 28.264 151.325 27.96C150.701 27.64 150.005 27.48 149.237 27.48C148.133 27.48 147.189 27.832 146.405 28.536C145.637 29.24 145.197 30.216 145.085 31.464H153.389ZM160.712 27.984C161.096 27.232 161.64 26.648 162.344 26.232C163.064 25.816 163.936 25.608 164.96 25.608V27.864H164.384C161.936 27.864 160.712 29.192 160.712 31.848V39H158.528V25.848H160.712V27.984ZM187.031 39H184.847L176.063 25.68V39H173.879V22.248H176.063L184.847 35.544V22.248H187.031V39ZM196.49 39.216C195.258 39.216 194.138 38.936 193.13 38.376C192.138 37.816 191.354 37.024 190.778 36C190.218 34.96 189.938 33.76 189.938 32.4C189.938 31.056 190.226 29.872 190.802 28.848C191.394 27.808 192.194 27.016 193.202 26.472C194.21 25.912 195.338 25.632 196.586 25.632C197.834 25.632 198.962 25.912 199.97 26.472C200.978 27.016 201.77 27.8 202.346 28.824C202.938 29.848 203.234 31.04 203.234 32.4C203.234 33.76 202.93 34.96 202.322 36C201.73 37.024 200.922 37.816 199.898 38.376C198.874 38.936 197.738 39.216 196.49 39.216ZM196.49 37.296C197.274 37.296 198.01 37.112 198.698 36.744C199.386 36.376 199.938 35.824 200.354 35.088C200.786 34.352 201.002 33.456 201.002 32.4C201.002 31.344 200.794 30.448 200.378 29.712C199.962 28.976 199.418 28.432 198.746 28.08C198.074 27.712 197.346 27.528 196.562 27.528C195.762 27.528 195.026 27.712 194.354 28.08C193.698 28.432 193.17 28.976 192.77 29.712C192.37 30.448 192.17 31.344 192.17 32.4C192.17 33.472 192.362 34.376 192.746 35.112C193.146 35.848 193.674 36.4 194.33 36.768C194.986 37.12 195.706 37.296 196.49 37.296ZM223.626 25.848L219.522 39H217.266L214.098 28.56L210.93 39H208.674L204.546 25.848H206.778L209.802 36.888L213.066 25.848H215.298L218.49 36.912L221.466 25.848H223.626Z" fill="black"/>
</svg>
